# xmcd CD database file
#
# Track frame offsets:
#	150
#	13016
#	26282
#	40372
#	53611
#	65391
#	79108
#	91362
#	103952
#	114391
#	128288
#	142270
#	156375
#	170779
#	181226
#	191097
#	202884
#	216766
#	229431
#	241495
#	252697
#
# Disc length: 3535 seconds
#
# Revision: 0
# Processed by: cddbd v1.5.2PL0 Copyright (c) Steve Scherf et al.
# Submitted via: CDex 1.51
#
DISCID=2e0dcd15
DTITLE=Illinois Jacquet - Complete Sessions 1945-1950
DYEAR=1900
DGENRE=Jazz
TTITLE0=Destination Moon
TTITLE1=For Truly
TTITLE2=I Surrender Dear
TTITLE3=Jet Propulsion
TTITLE4=King Jacquet
TTITLE5=Try Me One More Time
TTITLE6=Embryo
TTITLE7=Riffin' At 24th St
TTITLE8=Mutton Leg
TTITLE9=Symphony In Sid
TTITLE10=A Jacquet for Jack the Bellboy
TTITLE11=Big Foot
TTITLE12=Black Velvet
TTITLE13=B-Yot
TTITLE14=Adams' Alley
TTITLE15=Blue Satin
TTITLE16=Stay Away
TTITLE17=My Old Gal
TTITLE18=Slow Down Baby
TTITLE19=Hot Rod
TTITLE20=You Gotta Change
EXTD=
EXTT0=
EXTT1=
EXTT2=
EXTT3=
EXTT4=
EXTT5=
EXTT6=
EXTT7=
EXTT8=
EXTT9=
EXTT10=
EXTT11=
EXTT12=
EXTT13=
EXTT14=
EXTT15=
EXTT16=
EXTT17=
EXTT18=
EXTT19=
EXTT20=
PLAYORDER=
